<?xml version="1.0" standalone="no"?>
<!DOCTYPE svg PUBLIC "-//W3C//DTD SVG 20010904//EN"
 "http://www.w3.org/TR/2001/REC-SVG-20010904/DTD/svg10.dtd">
<svg version="1.0" xmlns="http://www.w3.org/2000/svg"
 width="584.000000pt" height="584.000000pt" viewBox="0 0 584.000000 584.000000"
 preserveAspectRatio="xMidYMid meet">
<metadata>
Created by potrace 1.14, written by Peter Selinger 2001-2017
</metadata>
<g transform="translate(0.000000,584.000000) scale(0.100000,-0.100000)"
fill="#000000" stroke="none">
<path d="M1415 5571 c-122 -66 -351 -217 -400 -264 -7 -7 -32 -27 -56 -46 -66
-52 -307 -298 -360 -366 -25 -33 -62 -82 -83 -110 -20 -27 -40 -54 -44 -60
-68 -92 -178 -292 -256 -467 -52 -117 -145 -414 -162 -517 -2 -14 -7 -37 -9
-51 -3 -14 -8 -42 -11 -64 -3 -21 -7 -48 -10 -60 -26 -133 -25 -678 0 -758 3
-7 7 -33 10 -58 6 -51 13 -93 22 -130 4 -14 8 -34 10 -45 15 -94 92 -333 152
-476 37 -85 117 -248 142 -289 5 -8 37 -60 71 -115 34 -55 65 -102 68 -105 4
-3 31 -38 60 -78 73 -100 98 -128 231 -262 162 -164 367 -323 545 -422 49 -28
235 -121 245 -123 3 -1 23 -9 45 -19 53 -23 259 -94 288 -99 12 -2 29 -7 37
-10 18 -7 32 -10 205 -42 72 -13 173 -26 225 -30 99 -7 340 -8 375 -1 11 2 56
7 100 11 44 4 83 9 86 11 4 2 26 6 50 9 24 2 91 16 149 30 130 31 123 29 138
38 6 5 12 6 12 3 0 -3 37 9 83 25 45 17 87 32 92 33 44 12 231 101 332 157
106 61 279 176 319 213 7 6 31 27 55 46 132 108 251 230 384 391 69 83 195
273 249 375 14 27 30 56 36 64 34 55 164 372 175 427 2 12 8 30 13 40 8 16 34
124 33 138 0 2 6 23 14 45 8 22 12 40 10 40 -2 0 0 14 5 32 5 17 12 50 15 72
7 53 16 116 21 140 7 40 18 246 18 346 0 104 -13 330 -19 340 -2 3 -6 32 -10
65 -3 33 -10 76 -15 95 -5 19 -11 49 -13 65 -11 74 -96 362 -127 430 -5 11
-23 52 -39 91 -126 295 -328 593 -560 823 -152 152 -281 258 -412 341 -30 19
-56 37 -59 40 -6 8 -206 120 -213 120 -2 0 -7 -28 -10 -62 -11 -108 -25 -131
-89 -143 -13 -3 -45 -9 -73 -15 -95 -18 -131 -24 -300 -46 -27 -3 -59 -7 -70
-9 -13 -1 -20 -9 -19 -21 2 -30 11 -88 23 -146 12 -62 19 -99 27 -148 9 -56
12 -74 18 -100 3 -14 8 -43 11 -64 3 -21 8 -48 11 -60 2 -12 7 -37 9 -56 2
-19 6 -48 9 -65 6 -32 11 -64 21 -130 3 -22 8 -50 11 -63 2 -13 9 -55 14 -95
5 -40 12 -83 14 -97 3 -14 7 -43 10 -65 3 -22 10 -71 15 -110 5 -38 13 -95 16
-125 3 -30 10 -82 15 -115 5 -33 11 -85 14 -115 3 -30 8 -64 10 -76 2 -11 7
-54 11 -95 3 -41 8 -87 10 -104 5 -39 15 -137 21 -200 2 -27 6 -79 9 -115 6
-64 9 -100 20 -250 14 -184 17 -250 30 -540 5 -103 16 -493 15 -530 0 -8 0
-86 0 -173 l-1 -158 -47 -22 c-26 -12 -49 -22 -52 -22 -3 -1 -14 -4 -25 -8
-25 -8 -112 -20 -235 -32 -205 -20 -691 -26 -885 -12 -55 4 -129 9 -165 12
-154 11 -234 25 -315 55 -78 29 -74 23 -75 102 0 40 -1 89 -1 108 -1 46 12
637 15 715 2 33 7 125 11 205 4 80 8 164 9 187 1 24 3 43 6 43 3 0 5 24 6 53
1 60 10 176 29 392 11 122 25 264 30 295 2 14 6 50 10 81 3 31 7 65 9 75 2 11
7 48 11 84 4 36 9 73 10 82 2 9 7 48 10 85 4 37 9 70 10 73 2 3 6 30 10 60 3
30 8 66 10 80 2 14 11 68 19 120 8 52 18 115 21 140 3 25 8 56 10 70 2 14 14
81 25 150 24 149 26 161 46 270 9 47 17 96 19 110 2 14 13 72 24 130 27 135
27 136 -6 137 -16 1 -46 4 -68 7 -22 3 -60 8 -85 12 -68 9 -86 11 -190 29 -19
4 -53 11 -75 16 -22 5 -49 12 -59 14 -11 3 -23 10 -27 17 -7 11 -22 92 -31
165 -3 22 -5 22 -73 -16z"/>
<path d="M4614 5177 c124 -123 251 -272 327 -384 18 -26 36 -49 41 -51 4 -2 8
-8 8 -13 0 -4 21 -41 47 -81 57 -87 176 -322 220 -433 31 -78 102 -285 108
-315 2 -8 8 -35 15 -60 14 -54 17 -65 35 -155 12 -62 18 -101 31 -195 20 -146
25 -445 10 -605 -13 -143 -14 -148 -21 -185 -4 -19 -8 -46 -10 -60 -9 -65 -40
-195 -71 -299 -19 -64 -36 -123 -38 -131 -15 -57 -110 -278 -172 -398 -60
-117 -210 -363 -233 -382 -4 -3 -22 -25 -41 -50 -19 -25 -38 -46 -42 -48 -5
-2 -8 -8 -8 -13 0 -14 -56 -75 -195 -215 -182 -183 -366 -327 -576 -450 -112
-65 -269 -144 -288 -144 -6 0 -11 -4 -11 -10 0 -5 -5 -10 -12 -10 -10 0 -131
-44 -193 -71 -21 -8 -179 -58 -205 -64 -8 -2 -46 -11 -85 -20 -38 -9 -81 -19
-95 -21 -14 -3 -47 -9 -75 -14 -84 -16 -117 -20 -185 -26 -125 -10 -141 -12
-147 -18 -4 -3 7 -7 23 -7 16 -1 47 -4 69 -7 58 -7 512 -7 569 1 26 3 67 9 90
12 22 3 66 10 96 16 30 6 67 12 81 15 22 4 167 39 194 47 118 36 245 82 337
124 31 14 60 25 64 24 4 -2 10 1 13 6 10 13 49 33 66 33 8 0 15 4 15 9 0 5 10
13 23 17 12 4 62 31 111 60 49 30 93 54 98 54 4 0 8 4 8 8 0 4 15 16 33 27 26
15 80 53 132 92 273 208 535 509 714 820 45 79 134 263 146 303 4 14 11 30 15
35 20 28 121 358 136 445 2 14 6 39 9 55 3 17 7 41 10 55 3 14 7 41 10 60 2
19 8 60 12 90 4 30 8 163 8 295 0 214 -4 291 -20 403 -5 32 -6 43 -20 112 -3
19 -7 42 -9 50 -1 8 -5 24 -9 35 -3 11 -9 34 -12 50 -8 39 -13 60 -15 60 -1 0
-4 13 -6 28 -5 30 -76 238 -101 297 -82 191 -215 431 -317 570 -113 155 -326
384 -445 480 -24 19 -55 45 -69 58 -14 12 -28 22 -31 22 -3 0 -17 10 -31 23
-26 23 -209 147 -247 166 -12 6 38 -49 111 -122z"/>
<path d="M2159 5213 c0 -5 -2 -17 -5 -28 -2 -11 -6 -31 -8 -45 -19 -111 -37
-220 -41 -245 -16 -87 -25 -145 -31 -190 -3 -27 -8 -59 -10 -69 -2 -11 -8 -56
-14 -100 -6 -45 -13 -92 -15 -106 -2 -14 -6 -50 -10 -80 -3 -30 -8 -73 -11
-95 -3 -22 -7 -58 -9 -80 -2 -22 -5 -53 -8 -70 -6 -30 -15 -122 -22 -220 -5
-56 -11 -133 -19 -215 -3 -30 -8 -91 -11 -135 -2 -44 -7 -114 -10 -155 -15
-217 -34 -921 -40 -1493 -2 -232 0 -317 9 -318 17 -1 57 -7 96 -13 142 -22
638 -29 790 -12 41 5 86 10 100 11 32 4 118 15 149 20 13 2 44 7 68 11 24 3
42 8 40 11 -3 2 -157 6 -343 8 -448 6 -501 10 -709 49 -26 5 -33 20 -33 73 0
32 -3 119 -6 193 -6 141 -18 564 -17 590 1 8 1 29 0 45 -3 83 -3 667 0 671 2
2 5 57 7 121 2 120 10 301 19 453 3 47 7 121 10 165 2 44 7 118 10 165 4 47 8
110 10 140 1 30 6 96 10 145 4 50 9 110 10 135 4 63 17 243 29 380 3 30 8 89
11 130 3 41 7 94 9 118 3 23 2 42 0 42 -2 0 -4 -3 -5 -7z"/>
</g>
</svg>
